<?xml version="1.0" encoding="utf-8"?>
<!-- Generator: Adobe Illustrator 16.0.0, SVG Export Plug-In . SVG Version: 6.00 Build 0)  -->
<!DOCTYPE svg PUBLIC "-//W3C//DTD SVG 1.1//EN" "http://www.w3.org/Graphics/SVG/1.1/DTD/svg11.dtd">
<svg version="1.1" id="Layer_1" xmlns="http://www.w3.org/2000/svg" xmlns:xlink="http://www.w3.org/1999/xlink" x="0px" y="0px"
	 width="8px" height="14px" viewBox="0 0 8 14" enable-background="new 0 0 8 14" xml:space="preserve">
<path fill="#666666" d="M1.605,10.635l3.743-3.638L1.71,3.254c-0.182-0.188-0.177-0.488,0.01-0.671
	c0.189-0.182,0.488-0.178,0.671,0.01l3.963,4.08c0,0.001,0.003,0.002,0.005,0.003c0.046,0.046,0.079,0.102,0.102,0.16
	C6.53,7.007,6.492,7.21,6.351,7.348C6.35,7.35,6.347,7.351,6.345,7.352l-4.078,3.962c-0.093,0.092-0.216,0.137-0.336,0.135
	c-0.122-0.003-0.243-0.05-0.334-0.145C1.413,11.117,1.417,10.818,1.605,10.635"/>
</svg>
