<?xml version="1.0" encoding="utf-8"?>
<!-- Generator: Adobe Illustrator 16.0.0, SVG Export Plug-In . SVG Version: 6.00 Build 0)  -->
<!DOCTYPE svg PUBLIC "-//W3C//DTD SVG 1.1//EN" "http://www.w3.org/Graphics/SVG/1.1/DTD/svg11.dtd">
<svg version="1.1" id="Layer_1" xmlns="http://www.w3.org/2000/svg" xmlns:xlink="http://www.w3.org/1999/xlink" x="0px" y="0px"
	 width="8px" height="14px" viewBox="0 0 8 14" enable-background="new 0 0 8 14" xml:space="preserve">
<path fill="#FFFFFF" d="M0.434,12.453l5.59-5.433L0.592,1.431C0.321,1.15,0.327,0.702,0.607,0.428
	C0.889,0.157,1.336,0.163,1.61,0.443l5.92,6.093c0,0.001,0.003,0.003,0.005,0.005C7.604,6.61,7.655,6.693,7.688,6.78
	c0.101,0.256,0.045,0.56-0.166,0.765C7.52,7.548,7.516,7.55,7.512,7.551l-6.09,5.918c-0.139,0.137-0.323,0.203-0.502,0.2
	c-0.182-0.003-0.363-0.073-0.499-0.215C0.147,13.174,0.153,12.727,0.434,12.453"/>
</svg>
